# xmcd CD database file
#
# Track frame offsets:
#	183
#	26138
#	63988
#	93373
#	121425
#	152835
#	175925
#	208978
#	241373
#	273428
#
# Disc length: 4090 seconds
#
# Revision: 0
# Processed by: cddbd v1.5.1PL0 Copyright (c) Steve Scherf et al.
# Submitted via: CDex 1.51
#
DISCID=8e0ff80a
DTITLE=James Clay - I let a song to out of my heart
DYEAR=1991
DGENRE=Jazz
TTITLE0=Things Ain't What They Used To Be
TTITLE1=My Foolish Heart
TTITLE2=Rain Check
TTITLE3=The Very Thought of You
TTITLE4=I Mean You
TTITLE5=I Let A Song Go Out of My Heart
TTITLE6=Just in Time
TTITLE7=I Can't Get Started
TTITLE8=John Paul Jones A.K.A. Trane's Blues
TTITLE9=Body and Soul
EXTD=YEAR: 1991
EXTT0=
EXTT1=
EXTT2=
EXTT3=
EXTT4=
EXTT5=
EXTT6=
EXTT7=
EXTT8=
EXTT9=
PLAYORDER=
